<svg width="1149" height="222" viewBox="0 0 1149 222" fill="none" xmlns="http://www.w3.org/2000/svg">
<path d="M103.206 134.368C103.206 141.184 102.15 147.424 100.038 153.088C97.9255 158.656 94.9015 163.408 90.9655 167.344C87.1255 171.184 82.4215 174.16 76.8535 176.272C71.3815 178.384 65.2855 179.44 58.5655 179.44C51.7495 179.44 45.5575 178.384 39.9895 176.272C34.5175 174.16 29.8615 171.184 26.0215 167.344C22.1815 163.408 19.2055 158.656 17.0935 153.088C14.9815 147.52 13.9255 141.28 13.9255 134.368V77.2H34.8055V134.368C34.8055 142.144 36.9655 148.384 41.2855 153.088C45.7015 157.792 51.5095 160.144 58.7095 160.144C65.9095 160.144 71.6215 157.792 75.8455 153.088C80.1655 148.384 82.3255 142.144 82.3255 134.368V77.2H103.206V134.368ZM119.853 77.2H167.229C177.309 77.2 185.517 79.792 191.853 84.976C198.189 90.064 201.357 96.688 201.357 104.848C201.357 109.264 200.253 113.296 198.045 116.944C195.837 120.592 192.813 123.616 188.973 126.016C193.773 128.32 197.613 131.488 200.493 135.52C203.373 139.456 204.813 143.872 204.813 148.768C204.813 157.504 201.549 164.56 195.021 169.936C188.589 175.312 180.093 178 169.533 178H119.853V77.2ZM165.933 94.48H140.733V118.384H165.933C170.349 118.384 173.901 117.328 176.589 115.216C179.277 113.008 180.621 110.08 180.621 106.432C180.621 102.784 179.277 99.904 176.589 97.792C173.901 95.584 170.349 94.48 165.933 94.48ZM167.949 160.72C172.749 160.72 176.589 159.568 179.469 157.264C182.349 154.864 183.789 151.648 183.789 147.616C183.789 143.776 182.349 140.656 179.469 138.256C176.589 135.856 172.749 134.656 167.949 134.656H140.733V160.72H167.949ZM210.776 162.016L222.728 147.04C228.584 152.128 234.2 155.872 239.576 158.272C245.048 160.576 250.808 161.728 256.856 161.728C263.096 161.728 268.088 160.576 271.832 158.272C275.576 155.968 277.448 152.896 277.448 149.056C277.448 145.6 276.152 142.912 273.56 140.992C271.064 139.072 266.84 137.632 260.888 136.672L240.872 133.216C232.232 131.776 225.656 128.752 221.144 124.144C216.728 119.536 214.52 113.584 214.52 106.288C214.52 96.88 218.072 89.44 225.176 83.968C232.376 78.496 242.072 75.76 254.264 75.76C261.56 75.76 268.904 77.008 276.296 79.504C283.784 82 290.312 85.456 295.88 89.872L284.648 105.424C279.272 101.296 273.992 98.272 268.808 96.352C263.624 94.336 258.296 93.328 252.824 93.328C247.256 93.328 242.792 94.384 239.432 96.496C236.072 98.512 234.392 101.248 234.392 104.704C234.392 107.776 235.496 110.176 237.704 111.904C239.912 113.632 243.608 114.88 248.792 115.648L267.8 118.816C277.784 120.448 285.272 123.664 290.264 128.464C295.352 133.168 297.896 139.408 297.896 147.184C297.896 156.976 294.008 164.8 286.232 170.656C278.552 176.512 268.28 179.44 255.416 179.44C247.352 179.44 239.384 177.904 231.512 174.832C223.736 171.76 216.824 167.488 210.776 162.016ZM310.4 178V77.2H331.28V178H310.4Z" fill="white"/>
<path d="M401.151 178V77.2H434.415C441.999 77.2 449.055 78.496 455.583 81.088C462.111 83.584 467.727 87.04 472.431 91.456C477.135 95.872 480.783 101.2 483.375 107.44C486.063 113.584 487.407 120.304 487.407 127.6C487.407 134.896 486.063 141.664 483.375 147.904C480.783 154.048 477.135 159.328 472.431 163.744C467.823 168.16 462.255 171.664 455.727 174.256C449.199 176.752 442.095 178 434.415 178H401.151ZM434.991 87.28H412.239V167.92H434.991C440.751 167.92 446.175 166.912 451.263 164.896C456.351 162.784 460.719 159.952 464.367 156.4C468.015 152.752 470.895 148.48 473.007 143.584C475.119 138.592 476.175 133.264 476.175 127.6C476.175 121.936 475.119 116.656 473.007 111.76C470.895 106.768 468.015 102.496 464.367 98.944C460.719 95.296 456.351 92.464 451.263 90.448C446.175 88.336 440.751 87.28 434.991 87.28ZM563.543 170.368C559.511 173.344 555.287 175.6 550.871 177.136C546.551 178.576 541.799 179.296 536.615 179.296C531.431 179.296 526.535 178.336 521.927 176.416C517.415 174.496 513.479 171.856 510.119 168.496C506.855 165.136 504.263 161.2 502.343 156.688C500.423 152.08 499.463 147.136 499.463 141.856C499.463 136.672 500.375 131.824 502.199 127.312C504.119 122.8 506.663 118.864 509.831 115.504C512.999 112.144 516.743 109.504 521.063 107.584C525.479 105.664 530.135 104.704 535.031 104.704C539.831 104.704 544.295 105.664 548.423 107.584C552.647 109.504 556.247 112.144 559.223 115.504C562.295 118.864 564.695 122.8 566.423 127.312C568.247 131.824 569.159 136.672 569.159 141.856V145.168H509.975C510.743 152.272 513.671 158.176 518.759 162.88C523.847 167.584 529.943 169.936 537.047 169.936C540.791 169.936 544.439 169.36 547.991 168.208C551.543 167.056 554.519 165.424 556.919 163.312L563.543 170.368ZM534.743 114.064C528.503 114.064 523.079 116.176 518.471 120.4C513.959 124.624 511.223 130.048 510.263 136.672H558.503C557.543 130.336 554.807 125.008 550.295 120.688C545.879 116.272 540.695 114.064 534.743 114.064ZM604.14 178L572.892 105.856H584.7L609.324 164.176L633.948 105.856H645.324L614.22 178H604.14ZM713.028 170.368C708.996 173.344 704.772 175.6 700.356 177.136C696.036 178.576 691.284 179.296 686.1 179.296C680.916 179.296 676.02 178.336 671.412 176.416C666.9 174.496 662.964 171.856 659.604 168.496C656.34 165.136 653.748 161.2 651.828 156.688C649.908 152.08 648.948 147.136 648.948 141.856C648.948 136.672 649.86 131.824 651.684 127.312C653.604 122.8 656.148 118.864 659.316 115.504C662.484 112.144 666.228 109.504 670.548 107.584C674.964 105.664 679.62 104.704 684.516 104.704C689.316 104.704 693.78 105.664 697.908 107.584C702.132 109.504 705.732 112.144 708.708 115.504C711.78 118.864 714.18 122.8 715.907 127.312C717.732 131.824 718.644 136.672 718.644 141.856V145.168H659.46C660.228 152.272 663.156 158.176 668.244 162.88C673.332 167.584 679.428 169.936 686.532 169.936C690.276 169.936 693.924 169.36 697.476 168.208C701.028 167.056 704.004 165.424 706.404 163.312L713.028 170.368ZM684.228 114.064C677.988 114.064 672.564 116.176 667.956 120.4C663.444 124.624 660.708 130.048 659.748 136.672H707.988C707.028 130.336 704.292 125.008 699.78 120.688C695.364 116.272 690.18 114.064 684.228 114.064ZM744.197 74.752V178H733.541V77.2L744.197 74.752ZM759.057 141.856C759.057 136.672 760.017 131.776 761.937 127.168C763.857 122.56 766.449 118.576 769.713 115.216C773.073 111.856 777.009 109.216 781.521 107.296C786.033 105.376 790.833 104.416 795.921 104.416C801.009 104.416 805.761 105.376 810.177 107.296C814.689 109.216 818.577 111.856 821.841 115.216C825.201 118.576 827.841 122.56 829.761 127.168C831.681 131.776 832.641 136.672 832.641 141.856C832.641 147.136 831.681 152.08 829.761 156.688C827.841 161.296 825.201 165.28 821.841 168.64C818.577 172 814.689 174.64 810.177 176.56C805.761 178.48 801.009 179.44 795.921 179.44C790.833 179.44 786.033 178.48 781.521 176.56C777.009 174.64 773.073 172 769.713 168.64C766.449 165.28 763.857 161.296 761.937 156.688C760.017 152.08 759.057 147.136 759.057 141.856ZM795.921 169.936C799.569 169.936 802.977 169.216 806.145 167.776C809.409 166.336 812.193 164.368 814.497 161.872C816.897 159.28 818.769 156.304 820.113 152.944C821.457 149.488 822.129 145.792 822.129 141.856C822.129 137.92 821.457 134.272 820.113 130.912C818.769 127.456 816.897 124.48 814.497 121.984C812.193 119.488 809.409 117.52 806.145 116.08C802.977 114.64 799.569 113.92 795.921 113.92C792.273 113.92 788.817 114.64 785.553 116.08C782.385 117.52 779.601 119.488 777.201 121.984C774.897 124.48 773.025 127.456 771.585 130.912C770.241 134.272 769.569 137.92 769.569 141.856C769.569 145.792 770.241 149.488 771.585 152.944C772.929 156.304 774.753 159.28 777.057 161.872C779.457 164.368 782.289 166.336 785.553 167.776C788.817 169.216 792.273 169.936 795.921 169.936ZM847.447 207.52V105.856H857.959V113.632C861.031 110.656 864.535 108.448 868.471 107.008C872.503 105.472 876.775 104.704 881.287 104.704C886.375 104.704 891.127 105.664 895.543 107.584C899.959 109.504 903.799 112.144 907.063 115.504C910.327 118.768 912.871 122.704 914.695 127.312C916.615 131.824 917.575 136.672 917.575 141.856C917.575 147.04 916.615 151.936 914.695 156.544C912.871 161.152 910.327 165.136 907.063 168.496C903.799 171.76 899.911 174.352 895.399 176.272C890.983 178.192 886.231 179.152 881.143 179.152C876.919 179.152 872.839 178.432 868.903 176.992C864.967 175.552 861.367 173.488 858.103 170.8V207.52H847.447ZM880.279 114.064C875.767 114.064 871.543 114.976 867.607 116.8C863.767 118.528 860.599 120.976 858.103 124.144V159.856C860.599 162.928 863.815 165.376 867.751 167.2C871.687 168.928 875.863 169.792 880.279 169.792C887.863 169.792 894.199 167.152 899.287 161.872C904.471 156.496 907.063 149.872 907.063 142C907.063 138.064 906.343 134.416 904.903 131.056C903.559 127.6 901.687 124.624 899.287 122.128C896.887 119.632 894.055 117.664 890.791 116.224C887.527 114.784 884.023 114.064 880.279 114.064ZM993.293 170.368C989.261 173.344 985.037 175.6 980.621 177.136C976.301 178.576 971.549 179.296 966.365 179.296C961.181 179.296 956.285 178.336 951.677 176.416C947.165 174.496 943.229 171.856 939.869 168.496C936.605 165.136 934.013 161.2 932.093 156.688C930.173 152.08 929.213 147.136 929.213 141.856C929.213 136.672 930.125 131.824 931.949 127.312C933.869 122.8 936.413 118.864 939.581 115.504C942.749 112.144 946.493 109.504 950.813 107.584C955.229 105.664 959.885 104.704 964.781 104.704C969.581 104.704 974.045 105.664 978.173 107.584C982.397 109.504 985.997 112.144 988.973 115.504C992.045 118.864 994.445 122.8 996.173 127.312C997.997 131.824 998.909 136.672 998.909 141.856V145.168H939.725C940.493 152.272 943.421 158.176 948.509 162.88C953.597 167.584 959.693 169.936 966.797 169.936C970.541 169.936 974.189 169.36 977.741 168.208C981.293 167.056 984.269 165.424 986.669 163.312L993.293 170.368ZM964.493 114.064C958.253 114.064 952.829 116.176 948.221 120.4C943.709 124.624 940.973 130.048 940.013 136.672H988.253C987.293 130.336 984.557 125.008 980.045 120.688C975.629 116.272 970.445 114.064 964.493 114.064ZM1013.81 178V105.856H1024.46V116.08C1026.57 112.336 1029.36 109.456 1032.81 107.44C1036.27 105.328 1040.21 104.272 1044.62 104.272C1045.97 104.272 1047.17 104.368 1048.22 104.56C1049.28 104.656 1050.33 104.896 1051.39 105.28V115.072C1050.14 114.688 1048.89 114.4 1047.65 114.208C1046.4 113.92 1045.15 113.776 1043.9 113.776C1039.49 113.776 1035.6 115.072 1032.24 117.664C1028.88 120.16 1026.29 123.808 1024.46 128.608V178H1013.81ZM1055.4 168.064L1061.88 161.152C1065.14 164.224 1068.79 166.624 1072.82 168.352C1076.95 169.984 1081.13 170.8 1085.35 170.8C1091.11 170.8 1095.82 169.6 1099.46 167.2C1103.11 164.8 1104.94 161.68 1104.94 157.84C1104.94 154.768 1103.83 152.368 1101.62 150.64C1099.51 148.816 1096.15 147.568 1091.54 146.896L1079.02 145.168C1071.82 144.112 1066.44 142 1062.89 138.832C1059.43 135.568 1057.7 131.2 1057.7 125.728C1057.7 119.68 1060.25 114.688 1065.34 110.752C1070.42 106.72 1076.9 104.704 1084.78 104.704C1089.96 104.704 1094.86 105.472 1099.46 107.008C1104.17 108.544 1108.73 110.944 1113.14 114.208L1107.53 121.408C1103.5 118.72 1099.56 116.704 1095.72 115.36C1091.98 114.016 1088.14 113.344 1084.2 113.344C1079.3 113.344 1075.27 114.448 1072.1 116.656C1069.03 118.864 1067.5 121.744 1067.5 125.296C1067.5 128.368 1068.55 130.768 1070.66 132.496C1072.78 134.128 1076.18 135.28 1080.89 135.952L1093.42 137.68C1100.62 138.64 1105.99 140.8 1109.54 144.16C1113.19 147.424 1115.02 151.792 1115.02 157.264C1115.02 160.336 1114.25 163.264 1112.71 166.048C1111.27 168.736 1109.21 171.088 1106.52 173.104C1103.93 175.024 1100.86 176.56 1097.3 177.712C1093.75 178.768 1089.91 179.296 1085.78 179.296C1079.83 179.296 1074.22 178.336 1068.94 176.416C1063.75 174.4 1059.24 171.616 1055.4 168.064Z" fill="white"/>
<path d="M58.5174 14.636C58.4051 14.1138 57.8888 13.5976 57.365 13.4855C54.3256 12.8335 51.9458 12.8335 49.5764 12.8335C39.8312 12.8335 33.9872 18.0447 29.6242 24.9168H19.7863C18.243 24.9183 16.4297 26.0378 15.7377 27.417L11.071 36.745C10.9268 37.0631 10.8461 37.4063 10.8335 37.7554C10.8337 38.3563 11.0726 38.9325 11.4975 39.3574C11.9225 39.7822 12.4988 40.0209 13.0997 40.021H22.8995L20.7779 42.1421C19.705 43.2146 19.551 45.1872 20.7779 46.4137L25.5833 51.2193C26.6364 52.2754 28.6188 52.4613 29.8575 51.2193L31.9791 49.0983V58.9012C31.9793 59.5021 32.2182 60.0784 32.6431 60.5032C33.0681 60.9281 33.6444 61.1668 34.2453 61.1668C34.5944 61.1539 34.9377 61.0733 35.256 60.9294L44.5761 56.2668C45.9571 55.578 47.0785 53.7652 47.0785 52.2209V42.3619C53.9317 37.9899 59.1651 32.1282 59.1651 22.4344C59.1739 20.0552 59.1739 17.676 58.5174 14.636ZM47.0873 28.6929C46.3405 28.6927 45.6105 28.4711 44.9897 28.0561C44.3689 27.641 43.885 27.0512 43.5993 26.3612C43.3137 25.6712 43.239 24.912 43.3848 24.1796C43.5306 23.4472 43.8904 22.7744 44.4185 22.2464C44.9466 21.7184 45.6194 21.3589 46.3519 21.2133C47.0843 21.0677 47.8435 21.1425 48.5335 21.4283C49.2234 21.7141 49.8131 22.1981 50.2279 22.8191C50.6428 23.44 50.8643 24.17 50.8643 24.9168C50.8637 25.9183 50.4655 26.8785 49.7573 27.5866C49.0491 28.2946 48.0888 28.6925 47.0873 28.6929Z" fill="white"/>
</svg>
